<?xml version="1.0" encoding="utf-8"?>
<!-- Generator: Adobe Illustrator 19.2.0, SVG Export Plug-In . SVG Version: 6.00 Build 0)  -->
<svg version="1.1" id="Layer_1" xmlns="http://www.w3.org/2000/svg" xmlns:xlink="http://www.w3.org/1999/xlink" x="0px" y="0px"
	 viewBox="0 0 500 500" style="enable-background:new 0 0 500 500;" xml:space="preserve">
<style type="text/css">
	.st0{fill:#577FA2;}
	.st1{fill:#FFA230;}
	.st2{fill:#FFCE92;}
	.st3{fill:#ADC0D1;}
	.st4{fill:#FEFEFE;}
	.st5{fill:#FFFFFF;stroke:#FFFFFF;}
	.st6{fill:none;stroke:#FFFFFF;stroke-width:2;stroke-linecap:round;stroke-linejoin:round;}
	.st7{fill:none;stroke:#FFFFFF;stroke-width:2;stroke-linecap:round;stroke-linejoin:bevel;}
	.st8{fill:#FFFFFF;stroke:#FFFFFF;stroke-width:4.155;}
	.st9{fill:#FFFFFF;stroke:#FFFFFF;stroke-width:2.0775;}
	.st10{fill:none;stroke:#FFFFFF;stroke-width:3;stroke-linecap:round;stroke-linejoin:round;}
</style>
<g>
	<g>
		<path class="st0" d="M143.3,27.5c53.3-29.9,155.1-29.9,208.3,0c2.5,2.2,6.2,3.2,9.2,5c5.9,2.8,10.7,6.6,16.7,9.2
			c2.4,2.9,6.2,4.3,9.2,6.7c9.9,6.5,18.1,14.6,27.5,21.7c5.9,6,11,12.9,17.5,18.3c3.6,6.2,8.7,10.8,12.5,16.7
			c3.5,4.6,6,10.1,10,14.2c1.6,4.8,4.6,8.2,6.7,12.5c2.3,4.1,3.9,8.9,6.7,12.5c10.6,24.7,19.2,51.4,21.7,84.2
			c0.5,2.5-1.1,7.2,0.8,8.3c0,6.4,0,12.8,0,19.2c-1.9,1.2-0.3,5.8-0.8,8.3c-2.5,32.8-11.1,59.4-21.7,84.2c-2.8,3.6-4.3,8.4-6.7,12.5
			c-2.1,4.3-5.1,7.7-6.7,12.5c-4,4-6.5,9.6-10,14.2c-3.8,5.9-8.9,10.5-12.5,16.7c-6.5,5.5-11.6,12.3-17.5,18.3
			c-9.4,7-17.6,15.2-27.5,21.7c-2.9,2.3-6.8,3.8-9.2,6.7c-6,2.6-10.8,6.4-16.7,9.2c-3,1.8-6.7,2.8-9.2,5
			c-53.3,29.9-155.1,29.9-208.3,0c-2.5-2.2-6.2-3.2-9.2-5c-5.9-2.8-10.7-6.6-16.7-9.2c-2.4-2.9-6.2-4.3-9.2-6.7
			c-9.9-6.5-18.1-14.6-27.5-21.7c-5.9-6-11-12.9-17.5-18.3c-3.6-6.2-8.7-10.8-12.5-16.7c-3.5-4.6-6-10.1-10-14.2
			c-1.6-4.8-4.6-8.2-6.7-12.5c-2.3-4.1-3.9-8.9-6.7-12.5C16.9,323.6,8.3,297,5.8,264.2c-0.5-2.5,1.1-7.2-0.8-8.3
			c0-6.4,0-12.8,0-19.2c1.9-1.2,0.3-5.8,0.8-8.3c2.5-32.8,11.1-59.4,21.7-84.2c2.8-3.6,4.3-8.4,6.7-12.5c2.1-4.3,5.1-7.7,6.7-12.5
			c4-4,6.5-9.6,10-14.2c3.8-5.9,8.9-10.5,12.5-16.7C69.8,82.9,74.9,76,80.8,70c9.4-7,17.6-15.2,27.5-21.7c2.9-2.3,6.8-3.8,9.2-6.7
			c6-2.6,10.8-6.4,16.7-9.2C137.1,30.7,140.9,29.7,143.3,27.5z M233.3,11.7c-47,2.7-81.7,17.7-112.5,36.7c-3.2,2-7,3.5-9.2,6.7
			c-5.7,2.4-9.5,6.7-14.2,10c-4.3,3.7-9.1,7-12.5,11.7c-11,8.8-19.6,19.8-27.5,31.7c-4.3,3.8-6.8,9.3-10,14.2
			c-2.3,4.1-5.3,7.5-6.7,12.5c-3.2,3.2-4.8,7.9-6.7,12.5c-11.1,24.1-19.9,50.7-21.7,84.2c-1.9,1.2-0.3,5.8-0.8,8.3
			c0,4.2,0,8.3,0,12.5c0.5,2.5-1.1,7.2,0.8,8.3c1.8,33.5,10.5,60,21.7,84.2c1.8,4.6,3.5,9.3,6.7,12.5c1.4,5,4.3,8.4,6.7,12.5
			c3.2,4.9,5.7,10.4,10,14.2C65.4,396,74,407.1,85,415.8c3.4,4.7,8.2,7.9,12.5,11.7c4.7,3.3,8.5,7.6,14.2,10
			c2.2,3.1,5.9,4.6,9.2,6.7c30.8,19,65.5,33.9,112.5,36.7c7.5,1.4,20.8,1.4,28.3,0c47-2.7,81.7-17.7,112.5-36.7c3.2-2,7-3.5,9.2-6.7
			c5.7-2.4,9.5-6.7,14.2-10c4.3-3.7,9.1-7,12.5-11.7c11-8.8,19.6-19.8,27.5-31.7c4.3-3.8,6.8-9.3,10-14.2c2.3-4.1,5.3-7.5,6.7-12.5
			c3.2-3.2,4.8-7.9,6.7-12.5c11.1-24.1,19.9-50.7,21.7-84.2c1.9-1.2,0.3-5.8,0.8-8.3c0-4.2,0-8.3,0-12.5c-0.5-2.5,1.1-7.2-0.8-8.3
			c-1.8-33.5-10.5-60-21.7-84.2c-1.8-4.6-3.5-9.3-6.7-12.5c-1.4-5-4.3-8.4-6.7-12.5c-3.2-4.9-5.7-10.4-10-14.2
			C429.6,96.5,421,85.4,410,76.7c-3.4-4.7-8.2-7.9-12.5-11.7c-4.7-3.3-8.5-7.6-14.2-10c-2.2-3.1-5.9-4.6-9.2-6.7
			c-30.8-19-65.5-33.9-112.5-36.7C254.2,10.3,240.8,10.3,233.3,11.7z"/>
		<path class="st1" d="M195,198.3c-11.7-17.7-24.1-33.2-24.2-61.7C170.7,81.2,196.4,25.3,250,17.5c1.2,1.9,5.8,0.3,8.3,0.8
			c46.3,3.5,81,18.4,112.5,36.7c2.4,2.9,6.2,4.3,9.2,6.7c2.4,1.3,3.5,3.7,6.7,4.2c10.8,9.5,21.7,18.9,31.7,29.2
			c3.6,6.2,8.7,10.8,12.5,16.7c3.5,4.6,6,10.1,10,14.2c1.6,4.8,4.6,8.2,6.7,12.5c2.3,4.1,3.9,8.9,6.7,12.5
			c27.9,50.4,27.9,140.5,0,190.8c-2.8,3.6-4.3,8.4-6.7,12.5c-2.1,4.3-5.1,7.7-6.7,12.5c-4,4-6.5,9.6-10,14.2
			c-3.8,5.9-8.9,10.5-12.5,16.7c-10,10.3-20.8,19.7-31.7,29.2c-3.1,0.5-4.3,2.9-6.7,4.2c-2.9,2.3-6.8,3.8-9.2,6.7
			c-29.1,17-61.3,30.9-102.5,35.8c38.9-17.2,59.7-52.5,67.5-100.8c1.9-1.7,0.3-6.9,0.8-10c1.1-36.6-7.9-63.2-25-81.7
			c-3.3-4-6.9-7.6-10.8-10.8c-28.4-24.1-65.9-39.1-95.8-61.7C202,204.7,198.7,201.3,195,198.3z"/>
		<path class="st2" d="M250,17.5c2.5,0.5,7.2-1.1,8.3,0.8C255.8,17.8,251.2,19.4,250,17.5z"/>
		<path class="st0" d="M150,40.8c20.1-8.5,40.9-16.3,65.8-20c0.7,2.4-5.3,4-9.2,6.7c-25.4,17.5-42.8,49.8-46.7,90
			c-1.9,3.1-0.3,9.7-0.8,14.2c0.5,89.8,78.6,101.9,129.2,141.7c3,3.7,6.3,7,10,10c11.4,15.8,24.8,34.4,25.8,62.5
			c1.3,33.7-8.6,73.1-25.8,91.7c-3.1,2.4-5.9,5.2-8.3,8.3c-12.9,13.7-28,24.8-50,27.5c-31.2,3.8-66.1-13.4-90-21.7
			c-2.5-2.2-6.2-3.2-9.2-5c-5.9-2.8-10.7-6.6-16.7-9.2c-2.4-2.9-6.2-4.3-9.2-6.7c-9.9-6.5-18.1-14.6-27.5-21.7
			c-3.3-4.2-6.5-8.5-10.8-11.7c-3.6-6.2-8.7-10.8-12.5-16.7c-3.5-4.6-6-10.1-10-14.2c-1.6-4.8-4.6-8.2-6.7-12.5
			c-2.3-4.1-3.9-8.9-6.7-12.5c-10.6-24.7-19.2-51.4-21.7-84.2c-0.5-2.5,1.1-7.2-0.8-8.3c0-1.9,0-3.9,0-5.8c1.9-1.2,0.3-5.8,0.8-8.3
			c2.5-32.8,11.1-59.4,21.7-84.2c2.8-3.6,4.3-8.4,6.7-12.5c2.1-4.3,5.1-7.7,6.7-12.5c4-4,6.5-9.6,10-14.2
			c3.8-5.9,8.9-10.5,12.5-16.7c4.4-3.1,7.5-7.5,10.8-11.7c9.4-7,17.6-15.2,27.5-21.7c2.9-2.3,6.8-3.8,9.2-6.7
			c6-2.6,10.8-6.4,16.7-9.2C143.8,44.1,147.5,43.1,150,40.8z M228.3,315.8c1.1,9.5-7.8,16.4-5.8,25.8c0.7,3.4,5.8,7.2,7.5,10
			c5.5,8.9,7.2,21.1,12.5,31.7c5.5,11,15.8,18,15.8,29.2c-12.4,3.9-23.9-6.4-31.7-12.5c-24,0.5-37.5-9.4-50-19.2
			c-21.3-16.7-30.7-34.9-42.5-60.8c-4.8-10.6-10.3-28.5-18.3-34.2c-8-5.6-18.8-5.1-26.7-10c-8.1-5-13.9-9.8-20.8-16.7
			c14.4,0.8,25.4-1.8,34.2-6.7c-4.6-17.5-23.8-21.6-37.5-30c-5.4-3.3-8.5-9-14.2-10c8.3,16.7,27.1,22.9,38.3,36.7
			c-10.2,2-20.9,3.6-30.8,5.8c11,18.7,30.2,29.3,51.7,37.5c15.4,25.7,23.2,59.1,44.2,79.2c2.4,3.1,5.2,5.9,8.3,8.3
			c16.3,13.1,31.1,27.8,60,28.3c8.4,10.1,41.7,23.3,43.3,2.5c0.9-12.3-13-20.5-17.5-30c-7.7-16.4-9.2-34.2-19.2-41.7
			c11-16.4,7.2-72.3-14.2-70c-9.9,1.1-6.5,14.3-10.8,22.5c-4.5-12.8-12.3-22.2-22.5-29.2c-3.3-3.7-8.2-10.1-12.5-10
			c3.8,2.6,6.2,6.6,10,9.2c9.4,14.8,19.5,28.8,25,47.5c10.7-4.3,10-20,13.3-31.7c7.3,4.3,9.1,14.3,10.8,24.2
			C228.3,306.4,228.3,311.1,228.3,315.8z M222.5,385.8c-1.7-5.3-6.6-7.3-7.5-13.3C206.8,375.6,212.3,388.8,222.5,385.8z"/>
		<path class="st3" d="M160,117.5c-0.5,4.5,1.1,11.1-0.8,14.2C159.7,127.2,158.1,120.6,160,117.5z"/>
		<path class="st3" d="M5,236.7c0.5-2.5-1.1-7.2,0.8-8.3C5.3,230.9,6.9,235.5,5,236.7z"/>
		<path class="st3" d="M489.2,228.3c1.9,1.2,0.3,5.8,0.8,8.3C488.1,235.5,489.7,230.9,489.2,228.3z"/>
		<path class="st3" d="M12.5,231.7c0,2.8,0,5.6,0,8.3c-0.3,0-0.6,0-0.8,0C12.2,237.5,10.6,232.8,12.5,231.7z"/>
		<path class="st3" d="M482.5,231.7c1.9,1.2,0.3,5.8,0.8,8.3c-0.3,0-0.6,0-0.8,0C482.5,237.2,482.5,234.4,482.5,231.7z"/>
		<path class="st3" d="M18.3,243.3c0.5-2.5-1.1-7.2,0.8-8.3C18.6,237.5,20.2,242.2,18.3,243.3z"/>
		<path class="st4" d="M11.7,240c0.3,0,0.6,0,0.8,0c0,4.2,0,8.3,0,12.5c-0.3,0-0.6,0-0.8,0C11.7,248.3,11.7,244.2,11.7,240z"/>
		<path class="st4" d="M482.5,240c0.3,0,0.6,0,0.8,0c0,4.2,0,8.3,0,12.5c-0.3,0-0.6,0-0.8,0C482.5,248.3,482.5,244.2,482.5,240z"/>
		<path class="st3" d="M18.3,249.2c1.9,1.2,0.3,5.8,0.8,8.3C17.3,256.3,18.9,251.7,18.3,249.2z"/>
		<path class="st3" d="M11.7,252.5c0.3,0,0.6,0,0.8,0c0,2.8,0,5.6,0,8.3C10.6,259.7,12.2,255,11.7,252.5z"/>
		<path class="st3" d="M482.5,252.5c0.3,0,0.6,0,0.8,0c-0.5,2.5,1.1,7.2-0.8,8.3C482.5,258.1,482.5,255.3,482.5,252.5z"/>
		<path class="st3" d="M5,255.8c1.9,1.2,0.3,5.8,0.8,8.3C3.9,263,5.5,258.4,5,255.8z"/>
		<path class="st3" d="M490,255.8c-0.5,2.5,1.1,7.2-0.8,8.3C489.7,261.6,488.1,257,490,255.8z"/>
		<path class="st3" d="M228.3,301.7c1.4,2.8,1.4,11.4,0,14.2C228.3,311.1,228.3,306.4,228.3,301.7z"/>
		<path class="st2" d="M335.8,372.5c0.5-3.1-1.1-8.3,0.8-10C336.1,365.6,337.7,370.8,335.8,372.5z"/>
		<path class="st3" d="M134.2,32.5c2.1-2.6,5.7-3.7,9.2-5C140.9,29.7,137.1,30.7,134.2,32.5z"/>
		<path class="st3" d="M108.3,48.3c2.2-3.1,5.9-4.6,9.2-6.7C115.1,44.6,111.3,46,108.3,48.3z"/>
		<path class="st3" d="M63.3,88.3c5.7-6.2,10.9-13,17.5-18.3C74.9,76,69.8,82.9,63.3,88.3z"/>
		<path class="st3" d="M40.8,119.2c3.2-4.9,5.7-10.4,10-14.2C47.4,109.6,44.8,115.1,40.8,119.2z"/>
		<path class="st3" d="M27.5,144.2c1.8-4.6,3.5-9.3,6.7-12.5C31.8,135.7,30.3,140.6,27.5,144.2z"/>
		<path class="st3" d="M27.5,348.3c2.8,3.6,4.3,8.4,6.7,12.5C31,357.7,29.3,352.9,27.5,348.3z"/>
		<path class="st3" d="M50.8,387.5c-4.3-3.8-6.8-9.3-10-14.2C44.8,377.4,47.4,382.9,50.8,387.5z"/>
		<path class="st3" d="M80.8,422.5c-6.6-5.3-11.8-12.1-17.5-18.3C69.8,409.6,74.9,416.5,80.8,422.5z"/>
		<path class="st3" d="M117.5,450.8c-3.2-2-7-3.5-9.2-6.7C111.3,446.5,115.1,447.9,117.5,450.8z"/>
		<path class="st3" d="M143.3,465c-3.5-1.3-7.1-2.4-9.2-5C137.1,461.8,140.9,462.8,143.3,465z"/>
		<path class="st3" d="M351.7,465c2.5-2.2,6.2-3.2,9.2-5C358.7,462.6,355.1,463.7,351.7,465z"/>
		<path class="st3" d="M377.5,450.8c2.4-2.9,6.2-4.3,9.2-6.7C384.5,447.3,380.8,448.8,377.5,450.8z"/>
		<path class="st3" d="M414.2,422.5c5.9-6,11-12.9,17.5-18.3C425.9,410.4,420.8,417.2,414.2,422.5z"/>
		<path class="st3" d="M454.2,373.3c-3.2,4.9-5.7,10.4-10,14.2C447.6,382.9,450.2,377.4,454.2,373.3z"/>
		<path class="st3" d="M467.5,348.3c-1.8,4.6-3.5,9.3-6.7,12.5C463.2,356.8,464.7,351.9,467.5,348.3z"/>
		<path class="st3" d="M460.8,131.7c3.2,3.2,4.8,7.9,6.7,12.5C464.7,140.6,463.2,135.7,460.8,131.7z"/>
		<path class="st3" d="M444.2,105c4.3,3.8,6.8,9.3,10,14.2C450.2,115.1,447.6,109.6,444.2,105z"/>
		<path class="st3" d="M414.2,70c6.6,5.3,11.8,12.1,17.5,18.3C425.2,82.9,420.1,76,414.2,70z"/>
		<path class="st3" d="M377.5,41.7c3.2,2,7,3.5,9.2,6.7C383.7,46,379.9,44.6,377.5,41.7z"/>
		<path class="st3" d="M351.7,27.5c3.5,1.3,7.1,2.4,9.2,5C357.9,30.7,354.1,29.7,351.7,27.5z"/>
		<path class="st3" d="M111.7,55c2.2-3.1,5.9-4.6,9.2-6.7C118.5,51.2,114.6,52.7,111.7,55z"/>
		<path class="st3" d="M85,76.7c3.4-4.7,8.2-7.9,12.5-11.7C94,69.5,89.1,72.7,85,76.7z"/>
		<path class="st3" d="M47.5,122.5c3.2-4.9,5.7-10.4,10-14.2C54,112.9,51.5,118.5,47.5,122.5z"/>
		<path class="st3" d="M34.2,147.5c1.8-4.6,3.5-9.3,6.7-12.5C38.5,139.1,37,143.9,34.2,147.5z"/>
		<path class="st3" d="M34.2,345c2.8,3.6,4.3,8.4,6.7,12.5C37.6,354.3,36,349.6,34.2,345z"/>
		<path class="st3" d="M47.5,370c4,4,6.5,9.6,10,14.2C53.2,380.4,50.7,374.9,47.5,370z"/>
		<path class="st3" d="M85,415.8c4.1,4,9,7.1,12.5,11.7C93.2,423.8,88.4,420.5,85,415.8z"/>
		<path class="st3" d="M111.7,437.5c2.9,2.3,6.8,3.8,9.2,6.7C117.6,442.1,113.8,440.6,111.7,437.5z"/>
		<path class="st3" d="M374.2,444.2c2.4-2.9,6.2-4.3,9.2-6.7C381.2,440.6,377.4,442.1,374.2,444.2z"/>
		<path class="st3" d="M397.5,427.5c3.5-4.5,8.4-7.7,12.5-11.7C406.6,420.5,401.8,423.8,397.5,427.5z"/>
		<path class="st3" d="M437.5,384.2c3.5-4.6,6-10.1,10-14.2C444.3,374.9,441.8,380.4,437.5,384.2z"/>
		<path class="st3" d="M454.2,357.5c2.3-4.1,3.9-8.9,6.7-12.5C459,349.6,457.4,354.3,454.2,357.5z"/>
		<path class="st3" d="M460.8,147.5c-2.8-3.6-4.3-8.4-6.7-12.5C457.4,138.2,459,142.9,460.8,147.5z"/>
		<path class="st3" d="M447.5,122.5c-4-4-6.5-9.6-10-14.2C441.8,112.1,444.3,117.6,447.5,122.5z"/>
		<path class="st3" d="M397.5,65c4.3,3.7,9.1,7,12.5,11.7C405.9,72.7,401,69.5,397.5,65z"/>
		<path class="st3" d="M383.3,55c-2.9-2.3-6.8-3.8-9.2-6.7C377.4,50.4,381.2,51.9,383.3,55z"/>
		<path class="st2" d="M195,198.3c3.7,3,7,6.3,10,10C201.3,205.3,198,202,195,198.3z"/>
		<path class="st2" d="M300.8,270c4,3.3,7.6,6.9,10.8,10.8C307.7,277.6,304.1,274,300.8,270z"/>
		<path class="st2" d="M370.8,437.5c2.4-2.9,6.2-4.3,9.2-6.7C377.8,434,374.1,435.5,370.8,437.5z"/>
		<path class="st2" d="M386.7,426.7c10.8-9.5,21.7-18.9,31.7-29.2C409.1,408.5,398.3,418,386.7,426.7z"/>
		<path class="st2" d="M440.8,366.7c-3.2,4.9-5.7,10.4-10,14.2C434.3,376.2,436.8,370.7,440.8,366.7z"/>
		<path class="st2" d="M454.2,341.7c-1.8,4.6-3.5,9.3-6.7,12.5C449.8,350.1,451.4,345.3,454.2,341.7z"/>
		<path class="st2" d="M447.5,138.3c3.2,3.2,4.8,7.9,6.7,12.5C451.4,147.2,449.8,142.4,447.5,138.3z"/>
		<path class="st2" d="M430.8,111.7c4.3,3.8,6.8,9.3,10,14.2C436.8,121.8,434.3,116.3,430.8,111.7z"/>
		<path class="st2" d="M386.7,65.8c11.6,8.7,22.4,18.2,31.7,29.2C408.4,84.7,397.5,75.3,386.7,65.8z"/>
		<path class="st2" d="M370.8,55c3.2,2,7,3.5,9.2,6.7C377.1,59.3,373.2,57.9,370.8,55z"/>
		<path class="st3" d="M140.8,45.8c2.1-2.6,5.7-3.7,9.2-5C147.5,43.1,143.8,44.1,140.8,45.8z"/>
		<path class="st3" d="M115,61.7c2.2-3.1,5.9-4.6,9.2-6.7C121.8,57.9,117.9,59.3,115,61.7z"/>
		<path class="st3" d="M76.7,95c3.7-3.8,6.7-8.3,10.8-11.7C84.2,87.5,81,91.9,76.7,95z"/>
		<path class="st3" d="M54.2,125.8c3.2-4.9,5.7-10.4,10-14.2C60.7,116.3,58.2,121.8,54.2,125.8z"/>
		<path class="st3" d="M40.8,150.8c1.8-4.6,3.5-9.3,6.7-12.5C45.2,142.4,43.6,147.2,40.8,150.8z"/>
		<path class="st3" d="M40.8,341.7c2.8,3.6,4.3,8.4,6.7,12.5C44.3,351,42.7,346.2,40.8,341.7z"/>
		<path class="st3" d="M64.2,380.8c-4.3-3.8-6.8-9.3-10-14.2C58.2,370.7,60.7,376.2,64.2,380.8z"/>
		<path class="st3" d="M87.5,409.2c-4.1-3.4-7.1-7.9-10.8-11.7C81,400.6,84.2,405,87.5,409.2z"/>
		<path class="st3" d="M124.2,437.5c-3.2-2-7-3.5-9.2-6.7C117.9,433.2,121.8,434.6,124.2,437.5z"/>
		<path class="st3" d="M150,451.7c-3.5-1.3-7.1-2.4-9.2-5C143.8,448.4,147.5,449.4,150,451.7z"/>
		<path class="st3" d="M290,445.8c2.4-3.1,5.2-5.9,8.3-8.3C295.9,440.6,293.1,443.4,290,445.8z"/>
		<path class="st3" d="M288.3,273.3c3.7,3,7,6.3,10,10C294.7,280.3,291.3,277,288.3,273.3z"/>
		<path class="st3" d="M154.2,371.7c3.1,2.4,5.9,5.2,8.3,8.3C159.4,377.6,156.6,374.8,154.2,371.7z"/>
		<path class="st3" d="M179.2,261.7c-3.8-2.6-6.2-6.6-10-9.2c4.3-0.1,9.2,6.3,12.5,10C180.5,262.9,179.6,259.3,179.2,261.7z"/>
		<path class="st4" d="M154.2,371.7c-21-20.1-28.7-53.5-44.2-79.2c-21.5-8.2-40.7-18.8-51.7-37.5c10-2.3,20.6-3.8,30.8-5.8
			c-11.2-13.8-30.1-19.9-38.3-36.7c5.6,1,8.7,6.7,14.2,10c13.7,8.4,32.9,12.5,37.5,30c-8.7,4.9-19.8,7.5-34.2,6.7
			c7,6.9,12.8,11.7,20.8,16.7c7.9,4.9,18.7,4.4,26.7,10c8,5.6,13.5,23.6,18.3,34.2c11.8,25.9,21.2,44.1,42.5,60.8
			c12.5,9.8,26,19.7,50,19.2c7.8,6.1,19.3,16.4,31.7,12.5c-0.1-11.2-10.4-18.2-15.8-29.2c-5.3-10.6-7-22.8-12.5-31.7
			c-1.7-2.8-6.8-6.6-7.5-10c-2-9.5,7-16.4,5.8-25.8c1.4-2.8,1.4-11.4,0-14.2c-1.8-9.9-3.5-19.8-10.8-24.2
			c-3.4,11.6-2.6,27.4-13.3,31.7c-5.5-18.7-15.6-32.7-25-47.5c0.5-2.4,1.3,1.3,2.5,0.8c10.2,7,18,16.4,22.5,29.2
			c4.4-8.2,0.9-21.4,10.8-22.5c21.3-2.3,25.1,53.6,14.2,70c10,7.4,11.4,25.3,19.2,41.7c4.5,9.5,18.4,17.7,17.5,30
			c-1.6,20.8-35,7.6-43.3-2.5c-28.9-0.5-43.7-15.2-60-28.3C160.1,376.9,157.3,374.1,154.2,371.7z"/>
		<path class="st4" d="M215,372.5c0.9,6,5.8,8.1,7.5,13.3C212.3,388.8,206.8,375.6,215,372.5z"/>
		<path class="st3" d="M233.3,11.7c7.5-1.4,20.8-1.4,28.3,0C252.2,11.7,242.8,11.7,233.3,11.7z"/>
		<path class="st3" d="M233.3,480.8c9.4,0,18.9,0,28.3,0C254.2,482.2,240.8,482.2,233.3,480.8z"/>
	</g>
</g>
<g id="Layer_x0020_3">
	<path class="st5" d="M386.2,250.5c1.4-11.3,0.9-12.9,9.3-11.1l2.1,0.2c6.4,0.3,14.9-1,19.8-3.3c10.7-4.9,17-13.2,6.5-11
		c-24,4.9-25.6-3.2-25.6-3.2c25.3-37.6,35.9-85.3,26.8-96.9c-24.9-31.8-68.1-16.8-68.8-16.4l-0.2,0c-4.7-1-10-1.6-16-1.7
		c-10.9-0.2-19.1,2.8-25.3,7.6c0,0-77-31.7-73.4,39.9c0.8,15.2,21.8,115.2,46.9,85c9.2-11,18.1-20.4,18.1-20.4
		c4.4,2.9,9.7,4.4,15.2,3.9l0.4-0.4c-0.1,1.4-0.1,2.7,0.2,4.3c-6.5,7.2-4.6,8.5-17.5,11.2c-13.1,2.7-5.4,7.5-0.4,8.8
		c6.1,1.5,20.2,3.7,29.7-9.6l-0.4,1.5c2.5,2,2.4,14.6,2.7,23.6c0.4,9,1,17.4,2.8,22.3c1.8,4.9,4,17.7,21,14
		C374.3,295.7,385.2,291.3,386.2,250.5"/>
	<path class="st1" d="M423.9,225.2c-24,4.9-25.6-3.2-25.6-3.2c25.3-37.6,35.9-85.3,26.8-96.9c-24.9-31.8-68.1-16.8-68.8-16.4l-0.2,0
		c-4.7-1-10-1.6-16-1.7c-10.9-0.2-19.1,2.8-25.3,7.6c0,0-77-31.7-73.4,39.9c0.8,15.2,21.8,115.2,46.9,85c9.2-11,18.1-20.4,18.1-20.4
		c4.4,2.9,9.7,4.4,15.2,3.9l0.4-0.4c-0.1,1.4-0.1,2.7,0.2,4.3c-6.5,7.2-4.6,8.5-17.5,11.2c-13.1,2.7-5.4,7.5-0.4,8.8
		c6.1,1.5,20.2,3.7,29.7-9.6l-0.4,1.5c2.5,2,4.3,13.2,4,23.3c-0.3,10.1-0.5,17.1,1.5,22.5s4,17.7,21,14c14.2-3,21.6-10.9,22.6-24.1
		c0.7-9.4,2.4-8,2.5-16.3l1.3-4c1.5-12.7,0.2-16.8,9-14.9l2.1,0.2c6.4,0.3,14.9-1,19.8-3.3C428.1,231.3,434.4,223.1,423.9,225.2
		L423.9,225.2z"/>
	<path class="st6" d="M335,232.5c-0.7,23.6,0.2,47.4,2.5,53.2c2.3,5.8,7.3,17,24.3,13.4c14.2-3,19.4-8.9,21.6-22
		c1.7-9.6,4.8-36.2,5.2-41.6"/>
	<path class="st6" d="M314.6,114.2c0,0-77-31.5-73.4,40.1c0.8,15.2,21.8,115.2,46.9,85c9.2-11,17.5-19.7,17.5-19.7"/>
	<path class="st6" d="M356.2,108.4c-2.7,0.8,42.8-16.6,68.7,16.4c9.1,11.7-1.5,59.4-26.8,96.9"/>
	<path class="st7" d="M398.1,221.8c0,0,1.7,8.1,25.6,3.2c10.5-2.2,4.2,6.1-6.5,11c-8.7,4.1-28.4,5.1-28.7-0.5
		C387.8,221,398.9,225.4,398.1,221.8c-0.7-3.3-5.7-6.5-9-14.5c-2.9-7-39.5-60.5,10.1-52.5c1.8-0.4-12.9-47.2-59.4-48
		c-46.4-0.8-44.9,57.1-44.9,57.1"/>
	<path class="st6" d="M322,226.7c-6.5,7.2-4.6,8.5-17.5,11.2c-13.1,2.7-5.4,7.5-0.4,8.8c6.1,1.5,20.2,3.7,29.7-9.6
		c2.9-4.1,0-10.5-4-12.2C327.9,224,325.3,223,322,226.7L322,226.7z"/>
	<path class="st6" d="M321.6,226.6c-0.7-4.3,1.4-9.3,3.6-15.2c3.3-8.9,10.9-17.8,4.8-45.9c-4.5-21-35-4.4-35-1.5
		c0,2.8,1.4,14.4-0.5,27.9c-2.5,17.6,11.2,32.5,26.9,31"/>
	<path class="st8" d="M314.3,163.5c-0.1,1,1.8,3.6,4.3,3.9c2.5,0.3,4.6-1.7,4.8-2.7c0.1-1-1.8-2-4.3-2.4
		C316.6,162,314.4,162.5,314.3,163.5L314.3,163.5z"/>
	<path class="st9" d="M390.3,161.5c0.1,1-1.8,3.6-4.3,3.9c-2.5,0.3-4.6-1.7-4.8-2.7c-0.1-1,1.8-2,4.3-2.4
		C388.1,160,390.2,160.5,390.3,161.5L390.3,161.5z"/>
	<path class="st6" d="M399.3,154.8c0.4,7.6-1.6,12.8-1.9,20.9c-0.4,11.8,5.6,25.3-3.4,38.8"/>
	<path class="st10" d="M232.1,124.6"/>
</g>
</svg>
